# Blender 3.4.1
# www.blender.org
mtllib CircleMesh.mtl
o Cylinder
v 0.000000 -0.108402 -0.669233
v 0.000000 0.108402 -0.669233
v 0.130561 -0.108402 -0.656374
v 0.130561 0.108402 -0.656374
v 0.256104 -0.108402 -0.618290
v 0.256104 0.108402 -0.618290
v 0.371806 -0.108402 -0.556447
v 0.371806 0.108402 -0.556447
v 0.473219 -0.108402 -0.473219
v 0.473219 0.108402 -0.473219
v 0.556447 -0.108402 -0.371806
v 0.556447 0.108402 -0.371806
v 0.618290 -0.108402 -0.256104
v 0.618290 0.108402 -0.256104
v 0.656374 -0.108402 -0.130561
v 0.656374 0.108402 -0.130561
v 0.669232 -0.108402 0.000000
v 0.669232 0.108402 0.000000
v 0.656374 -0.108402 0.130561
v 0.656374 0.108402 0.130561
v 0.618290 -0.108402 0.256104
v 0.618290 0.108402 0.256104
v 0.556447 -0.108402 0.371806
v 0.556447 0.108402 0.371806
v 0.473219 -0.108402 0.473219
v 0.473219 0.108402 0.473219
v 0.371806 -0.108402 0.556447
v 0.371806 0.108402 0.556447
v 0.256104 -0.108402 0.618290
v 0.256104 0.108402 0.618290
v 0.130561 -0.108402 0.656374
v 0.130561 0.108402 0.656374
v 0.000000 -0.108402 0.669233
v 0.000000 0.108402 0.669233
v -0.130561 -0.108402 0.656374
v -0.130561 0.108402 0.656374
v -0.256104 -0.108402 0.618290
v -0.256104 0.108402 0.618290
v -0.371806 -0.108402 0.556447
v -0.371806 0.108402 0.556447
v -0.473219 -0.108402 0.473219
v -0.473219 0.108402 0.473219
v -0.556447 -0.108402 0.371806
v -0.556447 0.108402 0.371806
v -0.618290 -0.108402 0.256104
v -0.618290 0.108402 0.256104
v -0.656374 -0.108402 0.130561
v -0.656374 0.108402 0.130561
v -0.669233 -0.108402 0.000000
v -0.669233 0.108402 0.000000
v -0.656374 -0.108402 -0.130561
v -0.656374 0.108402 -0.130561
v -0.618290 -0.108402 -0.256104
v -0.618290 0.108402 -0.256104
v -0.556447 -0.108402 -0.371806
v -0.556447 0.108402 -0.371806
v -0.473219 -0.108402 -0.473219
v -0.473219 0.108402 -0.473219
v -0.371806 -0.108402 -0.556447
v -0.371806 0.108402 -0.556447
v -0.256104 -0.108402 -0.618290
v -0.256104 0.108402 -0.618290
v -0.130561 -0.108402 -0.656374
v -0.130561 0.108402 -0.656374
v 0.000000 0.000000 -1.000000
v 0.195090 0.000000 -0.980785
v 0.382683 0.000000 -0.923880
v 0.555570 0.000000 -0.831470
v 0.707107 0.000000 -0.707107
v 0.831470 0.000000 -0.555570
v 0.923880 0.000000 -0.382683
v 0.980785 0.000000 -0.195090
v 1.000000 0.000000 0.000000
v 0.980785 0.000000 0.195090
v 0.923880 0.000000 0.382683
v 0.831470 0.000000 0.555570
v 0.707107 0.000000 0.707107
v 0.555570 0.000000 0.831470
v 0.382683 0.000000 0.923880
v 0.195090 0.000000 0.980785
v 0.000000 0.000000 1.000000
v -0.195090 0.000000 0.980785
v -0.382683 0.000000 0.923880
v -0.555570 0.000000 0.831470
v -0.707107 0.000000 0.707107
v -0.831470 0.000000 0.555570
v -0.923880 0.000000 0.382683
v -0.980785 0.000000 0.195090
v -1.000000 0.000000 0.000000
v -0.980785 0.000000 -0.195090
v -0.923880 0.000000 -0.382683
v -0.831470 0.000000 -0.555570
v -0.707107 0.000000 -0.707107
v -0.555570 0.000000 -0.831470
v -0.382683 0.000000 -0.923880
v -0.195090 0.000000 -0.980785
v 0.000000 0.088968 -0.855494
v 0.166899 0.088968 -0.839056
v 0.327383 0.088968 -0.790374
v 0.475287 0.088968 -0.711317
v 0.604926 0.088968 -0.604926
v 0.711317 0.088968 -0.475287
v 0.790373 0.088968 -0.327383
v 0.839056 0.088968 -0.166899
v 0.855494 0.088968 -0.000000
v 0.839056 0.088968 0.166899
v 0.790373 0.088968 0.327383
v 0.711317 0.088968 0.475287
v 0.604926 0.088968 0.604926
v 0.475287 0.088968 0.711317
v 0.327383 0.088968 0.790374
v 0.166899 0.088968 0.839056
v 0.000000 0.088968 0.855494
v -0.166899 0.088968 0.839056
v -0.327383 0.088968 0.790374
v -0.475287 0.088968 0.711317
v -0.604926 0.088968 0.604926
v -0.711317 0.088968 0.475287
v -0.790374 0.088968 0.327383
v -0.839056 0.088968 0.166899
v -0.855494 0.088968 -0.000000
v -0.839056 0.088968 -0.166899
v -0.790374 0.088968 -0.327383
v -0.711317 0.088968 -0.475287
v -0.604926 0.088968 -0.604926
v -0.475287 0.088968 -0.711317
v -0.327383 0.088968 -0.790374
v -0.166899 0.088968 -0.839056
v 0.167083 -0.088728 -0.839984
v 0.327745 -0.088728 -0.791247
v 0.475812 -0.088728 -0.712104
v 0.605594 -0.088728 -0.605594
v 0.712104 -0.088728 -0.475812
v 0.791247 -0.088728 -0.327745
v 0.839983 -0.088728 -0.167083
v 0.856440 -0.088728 -0.000000
v 0.839983 -0.088728 0.167083
v 0.791247 -0.088728 0.327745
v 0.712104 -0.088728 0.475812
v 0.605594 -0.088728 0.605594
v 0.475812 -0.088728 0.712104
v 0.327745 -0.088728 0.791247
v 0.167083 -0.088728 0.839984
v 0.000000 -0.088728 0.856440
v -0.167083 -0.088728 0.839984
v -0.327745 -0.088728 0.791247
v -0.475812 -0.088728 0.712104
v -0.605594 -0.088728 0.605594
v -0.712104 -0.088728 0.475812
v -0.791247 -0.088728 0.327745
v -0.839984 -0.088728 0.167083
v -0.856440 -0.088728 -0.000000
v -0.839984 -0.088728 -0.167083
v -0.791247 -0.088728 -0.327745
v -0.712104 -0.088728 -0.475812
v -0.605594 -0.088728 -0.605594
v -0.475812 -0.088728 -0.712104
v -0.327745 -0.088728 -0.791247
v -0.167083 -0.088728 -0.839984
v 0.000000 -0.088728 -0.856440
vn 0.0102 0.9945 -0.1038
vn 0.0303 0.9945 -0.0998
vn 0.0492 0.9945 -0.0920
vn 0.0661 0.9945 -0.0806
vn 0.0806 0.9945 -0.0661
vn 0.0920 0.9945 -0.0492
vn 0.0998 0.9945 -0.0303
vn 0.1038 0.9945 -0.0102
vn 0.1038 0.9945 0.0102
vn 0.0998 0.9945 0.0303
vn 0.0920 0.9945 0.0492
vn 0.0806 0.9945 0.0661
vn 0.0661 0.9945 0.0806
vn 0.0492 0.9945 0.0920
vn 0.0303 0.9945 0.0998
vn 0.0102 0.9945 0.1038
vn -0.0102 0.9945 0.1038
vn -0.0303 0.9945 0.0998
vn -0.0492 0.9945 0.0920
vn -0.0661 0.9945 0.0806
vn -0.0806 0.9945 0.0661
vn -0.0920 0.9945 0.0492
vn -0.0998 0.9945 0.0303
vn -0.1038 0.9945 0.0102
vn -0.1038 0.9945 -0.0102
vn -0.0998 0.9945 -0.0303
vn -0.0920 0.9945 -0.0492
vn -0.0806 0.9945 -0.0661
vn -0.0661 0.9945 -0.0806
vn -0.0492 0.9945 -0.0920
vn -0.0303 0.9945 -0.0998
vn -0.0102 0.9945 -0.1038
vn -0.0517 -0.8495 -0.5250
vn -0.1531 -0.8495 -0.5049
vn -0.2487 -0.8495 -0.4653
vn -0.3347 -0.8495 -0.4078
vn -0.4078 -0.8495 -0.3347
vn -0.4653 -0.8495 -0.2487
vn -0.5049 -0.8495 -0.1531
vn -0.5250 -0.8495 -0.0517
vn -0.5250 -0.8495 0.0517
vn -0.5049 -0.8495 0.1531
vn -0.4653 -0.8495 0.2487
vn -0.4078 -0.8495 0.3347
vn -0.3347 -0.8495 0.4078
vn -0.2487 -0.8495 0.4653
vn -0.1531 -0.8495 0.5049
vn -0.0517 -0.8495 0.5250
vn 0.0517 -0.8495 0.5250
vn 0.1531 -0.8495 0.5049
vn 0.2487 -0.8495 0.4653
vn 0.3347 -0.8495 0.4078
vn 0.4078 -0.8495 0.3347
vn 0.4653 -0.8495 0.2487
vn 0.5049 -0.8495 0.1531
vn 0.5250 -0.8495 0.0517
vn 0.5250 -0.8495 -0.0517
vn 0.5049 -0.8495 -0.1531
vn 0.4653 -0.8495 -0.2487
vn 0.4078 -0.8495 -0.3347
vn 0.3347 -0.8495 -0.4078
vn 0.2487 -0.8495 -0.4653
vn 0.1531 -0.8495 -0.5049
vn 0.0517 -0.8495 -0.5250
vn -0.0516 0.8504 -0.5236
vn -0.1527 0.8504 -0.5035
vn -0.2480 0.8504 -0.4640
vn -0.3338 0.8504 -0.4067
vn -0.4067 0.8504 -0.3338
vn -0.4640 0.8504 -0.2480
vn -0.5035 0.8504 -0.1527
vn -0.5236 0.8504 -0.0516
vn -0.5236 0.8504 0.0516
vn -0.5035 0.8504 0.1527
vn -0.4640 0.8504 0.2480
vn -0.4067 0.8504 0.3338
vn -0.3338 0.8504 0.4067
vn -0.2480 0.8504 0.4640
vn -0.1527 0.8504 0.5035
vn -0.0516 0.8504 0.5236
vn 0.0516 0.8504 0.5236
vn 0.1527 0.8504 0.5035
vn 0.2480 0.8504 0.4640
vn 0.3338 0.8504 0.4067
vn 0.4067 0.8504 0.3338
vn 0.4640 0.8504 0.2480
vn 0.5035 0.8504 0.1527
vn 0.5236 0.8504 0.0516
vn 0.5236 0.8504 -0.0516
vn 0.5035 0.8504 -0.1527
vn 0.4640 0.8504 -0.2480
vn 0.4067 0.8504 -0.3338
vn 0.3338 0.8504 -0.4067
vn 0.2480 0.8504 -0.4640
vn 0.1527 0.8504 -0.5035
vn 0.0516 0.8504 -0.5236
vn 0.0103 -0.9945 -0.1045
vn 0.0305 -0.9945 -0.1005
vn 0.0495 -0.9945 -0.0926
vn 0.0666 -0.9945 -0.0812
vn 0.0812 -0.9945 -0.0666
vn 0.0926 -0.9945 -0.0495
vn 0.1005 -0.9945 -0.0305
vn 0.1045 -0.9945 -0.0103
vn 0.1045 -0.9945 0.0103
vn 0.1005 -0.9945 0.0305
vn 0.0926 -0.9945 0.0495
vn 0.0812 -0.9945 0.0666
vn 0.0666 -0.9945 0.0812
vn 0.0495 -0.9945 0.0926
vn 0.0305 -0.9945 0.1005
vn 0.0103 -0.9945 0.1045
vn -0.0103 -0.9945 0.1045
vn -0.0305 -0.9945 0.1005
vn -0.0495 -0.9945 0.0926
vn -0.0666 -0.9945 0.0812
vn -0.0812 -0.9945 0.0666
vn -0.0926 -0.9945 0.0495
vn -0.1005 -0.9945 0.0305
vn -0.1045 -0.9945 0.0103
vn -0.1045 -0.9945 -0.0103
vn -0.1005 -0.9945 -0.0305
vn -0.0926 -0.9945 -0.0495
vn -0.0812 -0.9945 -0.0666
vn -0.0666 -0.9945 -0.0812
vn -0.0495 -0.9945 -0.0926
vn -0.0305 -0.9945 -0.1005
vn -0.0103 -0.9945 -0.1045
vt 1.000000 0.000000
vt -0.000000 0.000000
vt 1.000000 1.000000
vt 0.000000 1.000000
vt 0.968750 0.000000
vt 0.968750 1.000000
vt 0.937500 0.000000
vt 0.937500 1.000000
vt 0.906250 0.000000
vt 0.906250 1.000000
vt 0.875000 0.000000
vt 0.875000 1.000000
vt 0.843750 0.000000
vt 0.843750 1.000000
vt 0.812500 0.000000
vt 0.812500 1.000000
vt 0.781250 0.000000
vt 0.781250 1.000000
vt 0.750000 0.000000
vt 0.750000 1.000000
vt 0.718750 0.000000
vt 0.718750 1.000000
vt 0.687500 0.000000
vt 0.687500 1.000000
vt 0.656250 0.000000
vt 0.656250 1.000000
vt 0.625000 0.000000
vt 0.625000 1.000000
vt 0.593750 0.000000
vt 0.593750 1.000000
vt 0.562500 0.000000
vt 0.562500 1.000000
vt 0.531250 0.000000
vt 0.531250 1.000000
vt 0.500000 0.000000
vt 0.500000 1.000000
vt 0.468750 0.000000
vt 0.468750 1.000000
vt 0.437500 0.000000
vt 0.437500 1.000000
vt 0.406250 0.000000
vt 0.406250 1.000000
vt 0.375000 0.000000
vt 0.375000 1.000000
vt 0.343750 0.000000
vt 0.343750 1.000000
vt 0.312500 0.000000
vt 0.312500 1.000000
vt 0.281250 0.000000
vt 0.281250 1.000000
vt 0.250000 0.000000
vt 0.250000 1.000000
vt 0.218750 0.000000
vt 0.218750 1.000000
vt 0.187500 0.000000
vt 0.187500 1.000000
vt 0.156250 0.000000
vt 0.156250 1.000000
vt 0.125000 0.000000
vt 0.125000 1.000000
vt 0.093750 0.000000
vt 0.093750 1.000000
vt 0.062500 0.000000
vt 0.062500 1.000000
vt 0.031250 0.000000
vt 0.031250 1.000000
vt -0.000000 0.500000
vt 1.000000 0.500000
vt 0.968750 0.500000
vt 0.937500 0.500000
vt 0.906250 0.500000
vt 0.875000 0.500000
vt 0.843750 0.500000
vt 0.812500 0.500000
vt 0.781250 0.500000
vt 0.750000 0.500000
vt 0.718750 0.500000
vt 0.687500 0.500000
vt 0.656250 0.500000
vt 0.625000 0.500000
vt 0.593750 0.500000
vt 0.562500 0.500000
vt 0.531250 0.500000
vt 0.500000 0.500000
vt 0.468750 0.500000
vt 0.437500 0.500000
vt 0.406250 0.500000
vt 0.375000 0.500000
vt 0.343750 0.500000
vt 0.312500 0.500000
vt 0.281250 0.500000
vt 0.250000 0.500000
vt 0.218750 0.500000
vt 0.187500 0.500000
vt 0.156250 0.500000
vt 0.125000 0.500000
vt 0.093750 0.500000
vt 0.062500 0.500000
vt 0.031250 0.500000
vt -0.000000 0.750783
vt 1.000000 0.750783
vt 0.968750 0.750783
vt 0.937500 0.750783
vt 0.906250 0.750783
vt 0.875000 0.750783
vt 0.843750 0.750783
vt 0.812500 0.750783
vt 0.781250 0.750783
vt 0.750000 0.750783
vt 0.718750 0.750783
vt 0.687500 0.750783
vt 0.656250 0.750783
vt 0.625000 0.750783
vt 0.593750 0.750783
vt 0.562500 0.750783
vt 0.531250 0.750783
vt 0.500000 0.750783
vt 0.468750 0.750783
vt 0.437500 0.750783
vt 0.406250 0.750783
vt 0.375000 0.750783
vt 0.343750 0.750783
vt 0.312500 0.750783
vt 0.281250 0.750783
vt 0.250000 0.750783
vt 0.218750 0.750783
vt 0.187500 0.750783
vt 0.156250 0.750783
vt 0.125000 0.750783
vt 0.093750 0.750783
vt 0.062500 0.750783
vt 0.031250 0.750783
vt 0.968750 0.250000
vt 0.937500 0.250000
vt 0.906250 0.250000
vt 0.875000 0.250000
vt 0.843750 0.250000
vt 0.812500 0.250000
vt 0.781250 0.250000
vt 0.750000 0.250000
vt 0.718750 0.250000
vt 0.687500 0.250000
vt 0.656250 0.250000
vt 0.625000 0.250000
vt 0.593750 0.250000
vt 0.562500 0.250000
vt 0.531250 0.250000
vt 0.500000 0.250000
vt 0.468750 0.250000
vt 0.437500 0.250000
vt 0.406250 0.250000
vt 0.375000 0.250000
vt 0.343750 0.250000
vt 0.312500 0.250000
vt 0.281250 0.250000
vt 0.250000 0.250000
vt 0.218750 0.250000
vt 0.187500 0.250000
vt 0.156250 0.250000
vt 0.125000 0.250000
vt 0.093750 0.250000
vt 0.062500 0.250000
vt 0.031250 0.250000
vt 1.000000 0.250000
vt -0.000000 0.250000
s 0
f 97/101/1 4/6/1 98/102/1
f 98/102/2 6/8/2 99/103/2
f 6/8/3 100/104/3 99/103/3
f 8/10/4 101/105/4 100/104/4
f 10/12/5 102/106/5 101/105/5
f 12/14/6 103/107/6 102/106/6
f 14/16/7 104/108/7 103/107/7
f 16/18/8 105/109/8 104/108/8
f 105/109/9 20/22/9 106/110/9
f 20/22/10 107/111/10 106/110/10
f 22/24/11 108/112/11 107/111/11
f 108/112/12 26/28/12 109/113/12
f 109/113/13 28/30/13 110/114/13
f 110/114/14 30/32/14 111/115/14
f 111/115/15 32/34/15 112/116/15
f 32/34/16 113/117/16 112/116/16
f 113/117/17 36/38/17 114/118/17
f 114/118/18 38/40/18 115/119/18
f 38/40/19 116/120/19 115/119/19
f 116/120/20 42/44/20 117/121/20
f 117/121/21 44/46/21 118/122/21
f 44/46/22 119/123/22 118/122/22
f 119/123/23 48/50/23 120/124/23
f 48/50/24 121/125/24 120/124/24
f 121/125/25 52/54/25 122/126/25
f 52/54/26 123/127/26 122/126/26
f 123/127/27 56/58/27 124/128/27
f 56/58/28 125/129/28 124/128/28
f 58/60/29 126/130/29 125/129/29
f 126/130/30 62/64/30 127/131/30
f 127/131/31 64/66/31 128/132/31
f 64/66/32 97/100/32 128/132/32
f 159/163/33 65/67/33 160/165/33
f 158/162/34 96/99/34 159/163/34
f 157/161/35 95/98/35 158/162/35
f 156/160/36 94/97/36 157/161/36
f 155/159/37 93/96/37 156/160/37
f 91/94/38 155/159/38 154/158/38
f 90/93/39 154/158/39 153/157/39
f 89/92/40 153/157/40 152/156/40
f 151/155/41 89/92/41 152/156/41
f 150/154/42 88/91/42 151/155/42
f 149/153/43 87/90/43 150/154/43
f 85/88/44 149/153/44 148/152/44
f 84/87/45 148/152/45 147/151/45
f 83/86/46 147/151/46 146/150/46
f 82/85/47 146/150/47 145/149/47
f 81/84/48 145/149/48 144/148/48
f 143/147/49 81/84/49 144/148/49
f 79/82/50 143/147/50 142/146/50
f 78/81/51 142/146/51 141/145/51
f 77/80/52 141/145/52 140/144/52
f 76/79/53 140/144/53 139/143/53
f 138/142/54 76/79/54 139/143/54
f 74/77/55 138/142/55 137/141/55
f 73/76/56 137/141/56 136/140/56
f 72/75/57 136/140/57 135/139/57
f 71/74/58 135/139/58 134/138/58
f 70/73/59 134/138/59 133/137/59
f 69/72/60 133/137/60 132/136/60
f 68/71/61 132/136/61 131/135/61
f 67/70/62 131/135/62 130/134/62
f 66/69/63 130/134/63 129/133/63
f 65/68/64 129/133/64 160/164/64
f 96/99/65 97/100/65 65/67/65
f 95/98/66 128/132/66 96/99/66
f 126/130/67 95/98/67 94/97/67
f 125/129/68 94/97/68 93/96/68
f 124/128/69 93/96/69 92/95/69
f 123/127/70 92/95/70 91/94/70
f 122/126/71 91/94/71 90/93/71
f 121/125/72 90/93/72 89/92/72
f 120/124/73 89/92/73 88/91/73
f 119/123/74 88/91/74 87/90/74
f 86/89/75 119/123/75 87/90/75
f 117/121/76 86/89/76 85/88/76
f 84/87/77 117/121/77 85/88/77
f 115/119/78 84/87/78 83/86/78
f 114/118/79 83/86/79 82/85/79
f 113/117/80 82/85/80 81/84/80
f 80/83/81 113/117/81 81/84/81
f 79/82/82 112/116/82 80/83/82
f 78/81/83 111/115/83 79/82/83
f 77/80/84 110/114/84 78/81/84
f 108/112/85 77/80/85 76/79/85
f 107/111/86 76/79/86 75/78/86
f 106/110/87 75/78/87 74/77/87
f 105/109/88 74/77/88 73/76/88
f 72/75/89 105/109/89 73/76/89
f 71/74/90 104/108/90 72/75/90
f 102/106/91 71/74/91 70/73/91
f 69/72/92 102/106/92 70/73/92
f 100/104/93 69/72/93 68/71/93
f 99/103/94 68/71/94 67/70/94
f 98/102/95 67/70/95 66/69/95
f 97/101/96 66/69/96 65/68/96
f 160/164/97 3/5/97 1/1/97
f 3/5/98 130/134/98 5/7/98
f 5/7/99 131/135/99 7/9/99
f 7/9/100 132/136/100 9/11/100
f 132/136/101 11/13/101 9/11/101
f 11/13/102 134/138/102 13/15/102
f 13/15/103 135/139/103 15/17/103
f 15/17/104 136/140/104 17/19/104
f 136/140/105 19/21/105 17/19/105
f 137/141/106 21/23/106 19/21/106
f 138/142/107 23/25/107 21/23/107
f 139/143/108 25/27/108 23/25/108
f 140/144/109 27/29/109 25/27/109
f 141/145/110 29/31/110 27/29/110
f 142/146/111 31/33/111 29/31/111
f 31/33/112 144/148/112 33/35/112
f 144/148/113 35/37/113 33/35/113
f 35/37/114 146/150/114 37/39/114
f 146/150/115 39/41/115 37/39/115
f 147/151/116 41/43/116 39/41/116
f 148/152/117 43/45/117 41/43/117
f 149/153/118 45/47/118 43/45/118
f 150/154/119 47/49/119 45/47/119
f 47/49/120 152/156/120 49/51/120
f 152/156/121 51/53/121 49/51/121
f 51/53/122 154/158/122 53/55/122
f 154/158/123 55/57/123 53/55/123
f 55/57/124 156/160/124 57/59/124
f 57/59/125 157/161/125 59/61/125
f 157/161/126 61/63/126 59/61/126
f 158/162/127 63/65/127 61/63/127
f 63/65/128 160/165/128 1/2/128
f 97/101/1 2/3/1 4/6/1
f 98/102/2 4/6/2 6/8/2
f 6/8/3 8/10/3 100/104/3
f 8/10/4 10/12/4 101/105/4
f 10/12/5 12/14/5 102/106/5
f 12/14/6 14/16/6 103/107/6
f 14/16/7 16/18/7 104/108/7
f 16/18/8 18/20/8 105/109/8
f 105/109/9 18/20/9 20/22/9
f 20/22/10 22/24/10 107/111/10
f 22/24/11 24/26/11 108/112/11
f 108/112/12 24/26/12 26/28/12
f 109/113/13 26/28/13 28/30/13
f 110/114/14 28/30/14 30/32/14
f 111/115/15 30/32/15 32/34/15
f 32/34/16 34/36/16 113/117/16
f 113/117/17 34/36/17 36/38/17
f 114/118/18 36/38/18 38/40/18
f 38/40/19 40/42/19 116/120/19
f 116/120/20 40/42/20 42/44/20
f 117/121/21 42/44/21 44/46/21
f 44/46/22 46/48/22 119/123/22
f 119/123/23 46/48/23 48/50/23
f 48/50/24 50/52/24 121/125/24
f 121/125/25 50/52/25 52/54/25
f 52/54/26 54/56/26 123/127/26
f 123/127/27 54/56/27 56/58/27
f 56/58/28 58/60/28 125/129/28
f 58/60/29 60/62/29 126/130/29
f 126/130/30 60/62/30 62/64/30
f 127/131/31 62/64/31 64/66/31
f 64/66/32 2/4/32 97/100/32
f 159/163/33 96/99/33 65/67/33
f 158/162/34 95/98/34 96/99/34
f 157/161/35 94/97/35 95/98/35
f 156/160/36 93/96/36 94/97/36
f 155/159/37 92/95/37 93/96/37
f 91/94/38 92/95/38 155/159/38
f 90/93/39 91/94/39 154/158/39
f 89/92/40 90/93/40 153/157/40
f 151/155/41 88/91/41 89/92/41
f 150/154/42 87/90/42 88/91/42
f 149/153/43 86/89/43 87/90/43
f 85/88/44 86/89/44 149/153/44
f 84/87/45 85/88/45 148/152/45
f 83/86/46 84/87/46 147/151/46
f 82/85/47 83/86/47 146/150/47
f 81/84/48 82/85/48 145/149/48
f 143/147/49 80/83/49 81/84/49
f 79/82/50 80/83/50 143/147/50
f 78/81/51 79/82/51 142/146/51
f 77/80/52 78/81/52 141/145/52
f 76/79/53 77/80/53 140/144/53
f 138/142/54 75/78/54 76/79/54
f 74/77/55 75/78/55 138/142/55
f 73/76/56 74/77/56 137/141/56
f 72/75/57 73/76/57 136/140/57
f 71/74/58 72/75/58 135/139/58
f 70/73/59 71/74/59 134/138/59
f 69/72/60 70/73/60 133/137/60
f 68/71/61 69/72/61 132/136/61
f 67/70/62 68/71/62 131/135/62
f 66/69/63 67/70/63 130/134/63
f 65/68/64 66/69/64 129/133/64
f 96/99/65 128/132/65 97/100/65
f 95/98/66 127/131/66 128/132/66
f 126/130/67 127/131/67 95/98/67
f 125/129/68 126/130/68 94/97/68
f 124/128/69 125/129/69 93/96/69
f 123/127/70 124/128/70 92/95/70
f 122/126/71 123/127/71 91/94/71
f 121/125/72 122/126/72 90/93/72
f 120/124/73 121/125/73 89/92/73
f 119/123/74 120/124/74 88/91/74
f 86/89/75 118/122/75 119/123/75
f 117/121/76 118/122/76 86/89/76
f 84/87/77 116/120/77 117/121/77
f 115/119/78 116/120/78 84/87/78
f 114/118/79 115/119/79 83/86/79
f 113/117/80 114/118/80 82/85/80
f 80/83/81 112/116/81 113/117/81
f 79/82/82 111/115/82 112/116/82
f 78/81/83 110/114/83 111/115/83
f 77/80/84 109/113/84 110/114/84
f 108/112/85 109/113/85 77/80/85
f 107/111/86 108/112/86 76/79/86
f 106/110/87 107/111/87 75/78/87
f 105/109/88 106/110/88 74/77/88
f 72/75/89 104/108/89 105/109/89
f 71/74/90 103/107/90 104/108/90
f 102/106/91 103/107/91 71/74/91
f 69/72/92 101/105/92 102/106/92
f 100/104/93 101/105/93 69/72/93
f 99/103/94 100/104/94 68/71/94
f 98/102/95 99/103/95 67/70/95
f 97/101/96 98/102/96 66/69/96
f 160/164/97 129/133/97 3/5/97
f 3/5/98 129/133/98 130/134/98
f 5/7/99 130/134/99 131/135/99
f 7/9/100 131/135/100 132/136/100
f 132/136/101 133/137/101 11/13/101
f 11/13/102 133/137/102 134/138/102
f 13/15/103 134/138/103 135/139/103
f 15/17/104 135/139/104 136/140/104
f 136/140/105 137/141/105 19/21/105
f 137/141/106 138/142/106 21/23/106
f 138/142/107 139/143/107 23/25/107
f 139/143/108 140/144/108 25/27/108
f 140/144/109 141/145/109 27/29/109
f 141/145/110 142/146/110 29/31/110
f 142/146/111 143/147/111 31/33/111
f 31/33/112 143/147/112 144/148/112
f 144/148/113 145/149/113 35/37/113
f 35/37/114 145/149/114 146/150/114
f 146/150/115 147/151/115 39/41/115
f 147/151/116 148/152/116 41/43/116
f 148/152/117 149/153/117 43/45/117
f 149/153/118 150/154/118 45/47/118
f 150/154/119 151/155/119 47/49/119
f 47/49/120 151/155/120 152/156/120
f 152/156/121 153/157/121 51/53/121
f 51/53/122 153/157/122 154/158/122
f 154/158/123 155/159/123 55/57/123
f 55/57/124 155/159/124 156/160/124
f 57/59/125 156/160/125 157/161/125
f 157/161/126 158/162/126 61/63/126
f 158/162/127 159/163/127 63/65/127
f 63/65/128 159/163/128 160/165/128
